<mxfile host="app.diagrams.net" modified="2023-09-20T16:18:41.847Z" agent="Mozilla/5.0 (Windows NT 10.0; Win64; x64) AppleWebKit/537.36 (KHTML, like Gecko) Chrome/116.0.0.0 Safari/537.36" etag="vHbfq1UeNZbt2fa5vIAw" version="21.7.5" type="github">
  <diagram name="페이지-1" id="nY5wp0MHrS2lvzzvELTN">
    <mxGraphModel dx="1221" dy="777" grid="1" gridSize="10" guides="1" tooltips="1" connect="1" arrows="1" fold="1" page="1" pageScale="1" pageWidth="827" pageHeight="1169" math="0" shadow="0">
      <root>
        <mxCell id="0" />
        <mxCell id="1" parent="0" />
        <mxCell id="hcaHWqaeuHhONh0ZvpZr-15" style="edgeStyle=orthogonalEdgeStyle;rounded=0;orthogonalLoop=1;jettySize=auto;html=1;exitX=0.5;exitY=1;exitDx=0;exitDy=0;" edge="1" parent="1" source="hcaHWqaeuHhONh0ZvpZr-2" target="hcaHWqaeuHhONh0ZvpZr-3">
          <mxGeometry relative="1" as="geometry" />
        </mxCell>
        <mxCell id="hcaHWqaeuHhONh0ZvpZr-2" value="로그인" style="whiteSpace=wrap;html=1;" vertex="1" parent="1">
          <mxGeometry x="40" y="150" width="120" height="60" as="geometry" />
        </mxCell>
        <mxCell id="hcaHWqaeuHhONh0ZvpZr-10" style="edgeStyle=orthogonalEdgeStyle;rounded=0;orthogonalLoop=1;jettySize=auto;html=1;entryX=0;entryY=0.5;entryDx=0;entryDy=0;" edge="1" parent="1" source="hcaHWqaeuHhONh0ZvpZr-3" target="hcaHWqaeuHhONh0ZvpZr-9">
          <mxGeometry relative="1" as="geometry">
            <Array as="points">
              <mxPoint x="200" y="310" />
              <mxPoint x="200" y="380" />
            </Array>
          </mxGeometry>
        </mxCell>
        <mxCell id="hcaHWqaeuHhONh0ZvpZr-18" style="edgeStyle=orthogonalEdgeStyle;rounded=0;orthogonalLoop=1;jettySize=auto;html=1;exitX=1;exitY=0.5;exitDx=0;exitDy=0;entryX=0;entryY=0.5;entryDx=0;entryDy=0;" edge="1" parent="1" source="hcaHWqaeuHhONh0ZvpZr-3" target="hcaHWqaeuHhONh0ZvpZr-17">
          <mxGeometry relative="1" as="geometry">
            <Array as="points">
              <mxPoint x="200" y="310" />
              <mxPoint x="200" y="240" />
            </Array>
          </mxGeometry>
        </mxCell>
        <mxCell id="hcaHWqaeuHhONh0ZvpZr-3" value="메인 화면" style="rounded=0;whiteSpace=wrap;html=1;" vertex="1" parent="1">
          <mxGeometry x="40" y="280" width="120" height="60" as="geometry" />
        </mxCell>
        <mxCell id="hcaHWqaeuHhONh0ZvpZr-14" style="edgeStyle=orthogonalEdgeStyle;rounded=0;orthogonalLoop=1;jettySize=auto;html=1;exitX=0.5;exitY=1;exitDx=0;exitDy=0;entryX=0.5;entryY=0;entryDx=0;entryDy=0;" edge="1" parent="1" source="hcaHWqaeuHhONh0ZvpZr-4" target="hcaHWqaeuHhONh0ZvpZr-2">
          <mxGeometry relative="1" as="geometry" />
        </mxCell>
        <mxCell id="hcaHWqaeuHhONh0ZvpZr-4" value="회원가입" style="whiteSpace=wrap;html=1;" vertex="1" parent="1">
          <mxGeometry x="40" y="30" width="120" height="60" as="geometry" />
        </mxCell>
        <mxCell id="hcaHWqaeuHhONh0ZvpZr-20" style="edgeStyle=orthogonalEdgeStyle;rounded=0;orthogonalLoop=1;jettySize=auto;html=1;exitX=1;exitY=0.5;exitDx=0;exitDy=0;entryX=0;entryY=0.5;entryDx=0;entryDy=0;" edge="1" parent="1" source="hcaHWqaeuHhONh0ZvpZr-9" target="hcaHWqaeuHhONh0ZvpZr-19">
          <mxGeometry relative="1" as="geometry" />
        </mxCell>
        <mxCell id="hcaHWqaeuHhONh0ZvpZr-9" value="검색 결과 화면" style="rounded=0;whiteSpace=wrap;html=1;" vertex="1" parent="1">
          <mxGeometry x="230" y="350" width="120" height="60" as="geometry" />
        </mxCell>
        <mxCell id="hcaHWqaeuHhONh0ZvpZr-16" value="- 추천 선택지들" style="text;html=1;align=center;verticalAlign=middle;resizable=0;points=[];autosize=1;strokeColor=none;fillColor=none;" vertex="1" parent="1">
          <mxGeometry x="45" y="340" width="110" height="30" as="geometry" />
        </mxCell>
        <mxCell id="hcaHWqaeuHhONh0ZvpZr-17" value="마이페이지" style="whiteSpace=wrap;html=1;" vertex="1" parent="1">
          <mxGeometry x="230" y="210" width="120" height="60" as="geometry" />
        </mxCell>
        <mxCell id="hcaHWqaeuHhONh0ZvpZr-26" style="edgeStyle=orthogonalEdgeStyle;rounded=0;orthogonalLoop=1;jettySize=auto;html=1;exitX=1;exitY=0.5;exitDx=0;exitDy=0;entryX=0;entryY=0.5;entryDx=0;entryDy=0;" edge="1" parent="1" source="hcaHWqaeuHhONh0ZvpZr-19" target="hcaHWqaeuHhONh0ZvpZr-25">
          <mxGeometry relative="1" as="geometry" />
        </mxCell>
        <mxCell id="hcaHWqaeuHhONh0ZvpZr-19" value="세부 결과 화면" style="whiteSpace=wrap;html=1;" vertex="1" parent="1">
          <mxGeometry x="414" y="350" width="120" height="60" as="geometry" />
        </mxCell>
        <mxCell id="hcaHWqaeuHhONh0ZvpZr-25" value="리뷰 작성" style="whiteSpace=wrap;html=1;" vertex="1" parent="1">
          <mxGeometry x="600" y="350" width="120" height="60" as="geometry" />
        </mxCell>
      </root>
    </mxGraphModel>
  </diagram>
</mxfile>
